<?xml version="1.0" encoding="UTF-8"?>
<svg id="Calque_1" xmlns="http://www.w3.org/2000/svg" version="1.1" viewBox="0 0 400 400">
  <!-- Generator: Adobe Illustrator 29.8.5, SVG Export Plug-In . SVG Version: 2.1.1 Build 2)  -->
  <defs>
    <style>
      .st0 {
        fill: #231f20;
      }
    </style>
  </defs>
  <path class="st0" d="M137.78,204.1l25.81,44.33h41.08l-24.72-44.33h30.53l25.88,46.15c-2.33,3.53-11.95,23.49-14.22,24.73-1.1.6-1.09.41-1.82-.41-1.54-1.73-2.53-5.49-4.38-7.25h-41.08l.57,2.7,24.72,42.84-14.77,26.38-1.82.41-77.77-135.55h31.99Z"/>
  <path class="st0" d="M194.49,242.61h-27.99l-22.17-38.51h27.99c5.56,7.53,10.35,16.02,15.03,24.22,2.55,4.48,5.88,9.49,7.15,14.3Z"/>
  <polygon class="st0" points="262.8 203.48 240.6 242.75 238.75 242.27 217 203.48 262.8 203.48"/>
  <path class="st0" d="M213.39,273.13c.8,3.58,5.19,6.51,4.21,10.35l-13.31,23.09-19.99-33.43h29.08Z"/>
  <path class="st0" d="M246.12,139.69l-15.15-6.43c3.45,5.89,8.38,9.93,15.15,6.43Z"/>
  <path class="st0" d="M246.12,139.69l-15.15-6.43c3.45,5.89,8.38,9.93,15.15,6.43Z"/>
  <path class="st0" d="M256.08,121.83l-14-21.34c-21.28-8.05-47.37-9.73-67.88-17.82-12.39-4.89-23.68-13.69-33.81-22.33,5.83,26.43,25.15,47.31,48.06,60.35-14.91,1.94-30.15-3.83-45.13,2.31,3.37,2.75,8.71,3.3,12.51,5.69,1.01.63,6.8,5.46,6.53,5.8-16.52-1.21-33.76-1.09-47.93,8.9l13.28-1.47c6.43.62,15.25.97,18.97,6.75-1.68,1.14-3.33-.58-3.81-.52-6.63.8-15.41,3.8-22.24,5.48-2.38.59-11.14,11.05-15.66,11.25.66,2.34-.2,3.18,2.36,2.03,7.82-3.52,13.67-5.56,22.29-3.68l-12.03,11.04-.86,2.42,5.89.02-3.06,3.34-13.81,24.04h32.02c.39-10.05,11.85-19.68,18.53-28.3-.91,9.34-12.16,18.85-11.99,28.3h27.99c-2.54-20.18,25.15-37.82,51.44-37.12,15.7.42,26.11,10.12,35.3,21.78,1.29-8.26,9.48-20.61,10.79-27.75.37-2.04.04-3.77-.62-5.68-3.19,4.48-6.39,8.67-5.9-.02-3.02,7.1-9.69,4.47-16.14,2.27-8.78-2.99-17.46-10.2-23.02-17.67,8.56,1.72,17.44,2.71,25.87,5.13,4.14,1.19,12.02,6.17,15.23,6.28,3.67.13,5.4-4.55,9.22-4.63l-2.46,7.95,6.77-2.4-4,7.61c13.47-2.3,17.72-19.92,20.25-31.48l-38.95-6.53ZM218.7,111.78l19.75,8.38c-8.82,4.57-15.25-.7-19.75-8.38Z"/>
</svg>